<?xml version="1.0" standalone="no"?>
<!DOCTYPE svg PUBLIC "-//W3C//DTD SVG 20010904//EN"
 "http://www.w3.org/TR/2001/REC-SVG-20010904/DTD/svg10.dtd">
<svg version="1.0" xmlns="http://www.w3.org/2000/svg"
 width="400.000000pt" height="400.000000pt" viewBox="0 0 400.000000 400.000000"
 preserveAspectRatio="xMidYMid meet">
<metadata>
Created by potrace 1.14, written by Peter Selinger 2001-2017
</metadata>
<g transform="translate(0.000000,400.000000) scale(0.100000,-0.100000)"
fill="#000000" stroke="none">
<path d="M2675 2949 c-90 -13 -162 -37 -246 -80 -289 -150 -439 -440 -439
-849 0 -199 34 -352 113 -505 58 -113 199 -254 314 -313 262 -135 624 -118
846 42 116 83 207 213 262 376 l24 69 -117 37 c-232 73 -233 73 -237 61 -2 -7
-9 -30 -16 -52 -39 -129 -116 -228 -218 -278 -61 -30 -73 -32 -166 -32 -96 0
-104 2 -177 37 -169 84 -240 228 -254 518 -21 414 124 647 417 667 179 13 338
-89 389 -248 7 -24 14 -45 15 -46 1 -3 346 85 351 89 7 8 -33 115 -68 180
-131 247 -447 377 -793 327z"/>
<path d="M380 2035 l0 -895 680 0 680 0 0 150 0 150 -500 0 -500 0 0 245 0
245 450 0 450 0 0 150 0 150 -450 0 -450 0 0 200 0 200 485 0 485 0 0 150 0
150 -665 0 -665 0 0 -895z"/>
</g>
</svg>
