<?xml version="1.0" standalone="no"?>
<!DOCTYPE svg PUBLIC "-//W3C//DTD SVG 20010904//EN"
 "http://www.w3.org/TR/2001/REC-SVG-20010904/DTD/svg10.dtd">
<svg version="1.0" xmlns="http://www.w3.org/2000/svg"
 width="400.000000pt" height="400.000000pt" viewBox="0 0 400.000000 400.000000"
 preserveAspectRatio="xMidYMid meet">
<metadata>
Created by potrace 1.14, written by Peter Selinger 2001-2017
</metadata>
<g transform="translate(0.000000,400.000000) scale(0.100000,-0.100000)"
fill="#000000" stroke="none">
<path d="M1798 3909 c-353 -34 -725 -185 -1003 -407 -493 -394 -769 -1024
-717 -1638 60 -699 463 -1288 1084 -1583 680 -324 1476 -223 2053 261 533 446
784 1165 644 1843 -198 961 -1087 1618 -2061 1524z m-136 -1290 l3 -492 384
488 c212 268 390 489 395 491 6 2 153 3 327 2 l317 -3 -330 -390 c-181 -214
-372 -440 -424 -502 l-95 -112 439 -574 c242 -316 442 -580 446 -586 5 -8 -84
-11 -336 -11 l-344 0 -312 418 c-172 230 -318 426 -325 437 -13 16 -19 12 -80
-61 l-66 -79 -1 -357 0 -358 -280 0 -280 0 0 1090 0 1090 280 0 280 0 2 -491z"/>
</g>
</svg>
